<?xml version="1.0" standalone="no"?>
<!DOCTYPE svg PUBLIC "-//W3C//DTD SVG 20010904//EN"
 "http://www.w3.org/TR/2001/REC-SVG-20010904/DTD/svg10.dtd">
<svg version="1.0" xmlns="http://www.w3.org/2000/svg"
 width="650.000000pt" height="650.000000pt" viewBox="0 0 650.000000 650.000000"
 preserveAspectRatio="xMidYMid meet">
<metadata>
Created by potrace 1.11, written by Peter Selinger 2001-2013
</metadata>
<g transform="translate(0.000000,650.000000) scale(0.100000,-0.100000)"
fill="#000000" stroke="none">
<path d="M3198 6292 c-15 -2 -44 -21 -66 -42 -87 -87 -164 -300 -272 -755 -24
-98 -24 -101 -35 -162 -4 -24 -11 -43 -17 -43 -5 0 -7 8 -4 18 2 9 7 58 11
107 3 50 8 104 10 120 2 17 6 77 10 135 4 58 9 113 11 123 7 40 -22 9 -31 -33
-12 -59 -175 -743 -182 -765 -4 -12 -25 60 -54 188 -26 114 -50 219 -53 232
-10 41 -25 19 -21 -33 2 -26 6 -108 10 -182 3 -74 8 -169 10 -210 2 -41 7
-133 10 -205 3 -71 8 -164 10 -205 2 -41 6 -138 9 -215 l5 -140 -26 55 c-35
70 -149 312 -174 368 -21 44 -43 57 -34 20 11 -53 75 -348 79 -369 3 -21 72
-339 81 -379 37 -159 60 -289 50 -279 -6 8 -58 87 -115 177 -56 89 -106 165
-111 168 -12 7 -11 -13 0 -51 5 -17 50 -165 99 -330 50 -165 93 -307 96 -315
2 -8 33 -109 66 -225 34 -115 70 -237 81 -269 10 -33 17 -61 16 -63 -2 -2 -17
20 -33 49 -53 95 -69 123 -97 165 -15 24 -27 45 -27 48 0 22 -219 325 -310
429 -132 151 -389 425 -472 504 -26 25 -44 50 -41 56 3 6 3 8 -1 4 -10 -8 -47
23 -40 34 3 5 1 7 -3 6 -14 -4 -123 105 -116 116 3 5 2 6 -4 3 -6 -4 -21 6
-35 21 -22 24 -120 115 -303 282 -33 30 -92 82 -130 115 -38 33 -75 65 -81 70
-27 25 -183 146 -257 198 -222 159 -380 217 -429 157 -23 -29 -23 -68 1 -153
19 -64 91 -240 161 -392 18 -38 54 -119 81 -180 l49 -110 -69 73 c-38 39 -102
109 -142 153 -41 45 -80 88 -87 95 -14 15 -36 19 -29 7 8 -15 205 -339 302
-498 53 -88 102 -166 107 -172 21 -26 -3 -12 -50 30 -100 88 -165 142 -178
150 -25 14 -15 -12 27 -70 46 -66 362 -518 382 -547 6 -10 19 -28 28 -40 54
-72 129 -187 129 -195 0 -6 4 -11 9 -11 5 0 20 -17 32 -37 13 -21 29 -44 36
-51 7 -7 13 -16 13 -20 0 -4 12 -20 26 -37 14 -16 21 -31 16 -33 -6 -2 -81 44
-168 100 -214 140 -212 138 -226 138 -7 0 5 -17 27 -37 22 -20 74 -68 115
-107 109 -103 319 -299 360 -336 126 -116 132 -123 118 -131 -9 -6 -5 -8 12
-7 16 2 24 -2 23 -9 -2 -7 1 -12 5 -10 5 1 42 -29 83 -66 l74 -68 -53 20 c-29
12 -55 21 -58 21 -3 0 -2 4 1 10 3 5 0 7 -9 4 -8 -3 -39 6 -68 21 -29 15 -55
27 -58 27 -7 1 -45 15 -93 36 -129 57 -108 33 114 -131 211 -156 335 -251 341
-260 4 -7 8 -8 8 -4 0 4 6 3 13 -3 6 -6 35 -27 62 -47 28 -21 55 -41 60 -46
13 -10 203 -151 357 -264 65 -48 117 -88 115 -89 -1 -1 -27 4 -57 13 -129 35
-198 50 -385 79 -16 2 -55 9 -85 14 -30 5 -77 12 -105 15 -47 6 -72 9 -147 20
-18 2 -68 7 -110 10 -43 3 -88 8 -100 11 -86 16 -494 24 -578 11 -25 -4 -58
-18 -74 -30 -27 -22 -28 -25 -15 -53 8 -17 46 -50 94 -82 l80 -53 -60 6 c-63
6 -140 14 -152 16 -5 1 -15 1 -22 0 -33 -2 13 -21 219 -90 118 -40 224 -76
235 -81 11 -5 27 -11 35 -13 8 -3 -27 -5 -79 -6 -175 -1 -157 -9 274 -121 360
-94 439 -117 429 -122 -5 -3 -26 -9 -46 -12 -21 -3 -57 -10 -80 -15 -24 -5
-63 -13 -88 -16 -40 -6 -83 -22 -70 -26 7 -2 168 -6 467 -10 138 -2 250 -6
248 -8 -5 -4 -143 -65 -200 -88 -49 -20 -48 -19 -41 -31 3 -5 27 -6 58 -1 60
10 110 16 183 24 28 3 68 7 90 10 22 2 63 7 90 10 28 3 64 8 80 10 29 4 49 7
175 20 30 3 64 8 75 10 38 7 170 19 206 18 46 -1 162 -56 187 -88 18 -22 19
-46 19 -389 l0 -365 27 -36 c15 -19 39 -38 54 -42 15 -3 88 -7 163 -6 125 0
139 1 168 22 17 12 36 32 42 43 8 15 12 136 13 382 1 260 5 367 14 382 22 41
173 108 220 99 12 -2 47 -6 79 -10 133 -14 149 -16 173 -20 14 -3 57 -7 95
-11 39 -3 77 -8 86 -9 9 -2 38 -6 65 -9 57 -7 286 -33 359 -42 28 -3 55 -7 62
-9 26 -9 23 16 -4 26 -15 6 -41 17 -58 24 -16 8 -61 28 -100 44 -38 17 -65 31
-60 32 11 2 164 5 492 10 117 2 213 8 213 12 0 4 -6 9 -12 11 -28 8 -251 49
-264 49 -42 0 35 24 371 111 204 54 385 102 403 107 37 12 43 29 10 27 -81 -3
-162 3 -148 12 8 5 89 34 180 65 266 89 293 99 298 114 3 8 1 11 -4 9 -8 -5
-44 -10 -174 -24 l-55 -5 55 31 c73 43 130 98 130 127 0 48 -92 68 -315 67
-110 0 -288 -10 -360 -19 -16 -2 -59 -7 -95 -10 -68 -6 -125 -12 -175 -20 -16
-2 -53 -7 -81 -10 -28 -3 -59 -7 -70 -9 -19 -4 -81 -13 -139 -22 -174 -26
-417 -84 -517 -123 -16 -6 -28 -7 -28 -3 1 4 102 81 226 172 124 91 235 173
247 182 63 49 159 118 163 118 3 0 15 9 27 21 12 12 48 40 80 62 66 47 62 45
252 187 77 58 143 109 147 115 12 16 2 17 -36 1 -20 -8 -36 -12 -36 -8 0 4 -4
2 -8 -4 -10 -15 -183 -87 -209 -88 -12 0 -20 -3 -18 -7 5 -7 -46 -32 -52 -25
-3 3 -12 -2 -20 -10 -9 -8 -18 -12 -21 -10 -3 3 12 21 33 38 21 18 62 56 90
83 29 28 92 86 140 130 48 44 102 95 121 113 20 21 38 31 45 26 8 -4 9 -3 5 5
-5 7 7 26 31 47 21 19 87 81 147 137 60 56 130 121 155 144 25 24 40 43 33 43
-14 0 -50 -22 -199 -121 -56 -37 -104 -65 -107 -62 -3 4 -6 2 -6 -4 0 -5 -23
-24 -51 -42 l-52 -32 18 28 c21 31 32 46 58 74 9 10 14 19 10 19 -5 0 0 7 10
14 10 8 18 17 17 21 -1 5 37 62 175 258 28 40 85 122 127 182 119 174 276 399
286 411 12 13 32 51 32 59 0 10 -24 -7 -86 -61 -120 -104 -155 -134 -161 -134
-3 0 -1 6 5 13 28 34 411 671 406 676 -3 3 -29 -19 -57 -50 -176 -189 -209
-222 -204 -204 3 11 42 110 87 220 155 381 194 533 150 587 -74 92 -382 -89
-795 -465 -241 -220 -575 -554 -793 -793 -364 -398 -442 -498 -629 -811 -62
-104 -117 -195 -122 -203 -5 -8 2 20 15 63 13 43 40 133 60 200 19 67 50 172
69 232 19 61 68 225 110 365 41 140 85 286 96 323 12 38 19 71 16 74 -7 7 -66
-80 -201 -295 -21 -34 -40 -61 -42 -59 -2 1 3 31 11 64 8 34 17 75 20 92 3 16
17 83 31 148 14 65 28 129 30 143 3 14 14 63 24 110 10 47 21 96 24 110 3 14
8 36 11 50 3 14 10 45 15 70 5 25 20 94 33 153 13 59 20 110 16 113 -5 3 -29
-39 -55 -93 -99 -208 -141 -299 -155 -330 -8 -18 -18 -33 -22 -33 -5 0 -6 3
-4 8 3 4 8 77 12 162 3 85 8 184 10 220 2 36 7 130 10 210 4 80 8 174 10 210
2 36 6 135 10 220 4 85 9 158 11 162 3 5 -1 8 -9 8 -10 0 -27 -61 -63 -221
-44 -202 -50 -219 -60 -193 -7 16 -15 45 -18 64 -5 33 -20 110 -30 155 -7 33
-86 418 -91 445 -18 96 -28 130 -36 130 -5 0 -9 -17 -10 -37 0 -21 -2 -99 -4
-173 -2 -74 -4 -189 -5 -255 -1 -75 -4 -112 -10 -100 -4 11 -25 97 -45 190
-51 235 -49 229 -88 370 -57 204 -123 356 -186 427 -43 48 -78 66 -123 60z
m-700 -4205 c6 0 12 -4 12 -9 0 -5 5 -6 10 -3 6 3 10 -1 10 -9 0 -9 4 -16 10
-16 5 0 7 6 4 14 -4 11 4 13 43 9 26 -3 51 -10 55 -16 6 -9 8 -9 8 1 0 7 13
12 33 12 l32 -1 -39 -19 c-22 -11 -43 -26 -48 -33 -4 -6 -8 -7 -8 -2 -1 20
-60 -96 -78 -152 -5 -17 -7 -34 -4 -38 3 -3 7 -21 9 -40 1 -19 14 -54 28 -77
19 -31 20 -37 6 -19 -12 13 -21 20 -21 16 0 -4 -7 -2 -15 5 -9 7 -14 19 -11
26 3 8 2 13 -2 13 -24 -4 -33 4 -12 11 l25 8 -26 1 c-20 1 -32 12 -53 50 -14
27 -22 52 -17 55 5 4 12 1 14 -4 3 -6 4 -5 3 2 -2 7 -9 13 -17 13 -26 0 -21
33 8 50 26 15 16 14 -23 -1 -13 -6 -15 -1 -11 24 3 18 0 33 -6 36 -7 2 0 5 16
5 16 1 26 -4 25 -11 -2 -8 7 -13 22 -13 15 0 24 5 23 13 -2 6 6 12 17 12 11 0
19 -5 18 -11 -2 -6 4 -14 12 -16 12 -4 12 -3 2 5 -8 5 -13 13 -13 18 1 5 -9 9
-21 9 -13 0 -22 -5 -20 -12 1 -7 -7 -13 -18 -13 -11 0 -19 5 -17 12 1 6 -9 14
-23 18 -14 4 -24 12 -23 18 2 6 4 24 5 41 2 28 4 30 33 25 16 -4 36 -7 43 -7z
m632 -40 c5 -41 3 -47 -18 -56 -13 -6 -20 -16 -17 -21 3 -6 -3 -10 -14 -10
-12 0 -20 5 -18 12 1 6 -7 13 -18 15 -18 3 -18 2 -2 -5 10 -4 18 -12 18 -17
-1 -6 9 -10 22 -10 12 0 21 5 20 12 -1 6 5 14 13 17 14 5 15 1 10 -26 -3 -18
-8 -44 -10 -57 -7 -36 -37 -101 -48 -101 -5 0 -7 4 -3 9 3 6 -5 15 -17 22 -22
12 -22 12 -3 20 19 7 19 8 1 8 -20 1 -13 16 7 16 20 0 14 49 -6 53 -9 2 -17
-1 -17 -7 0 -6 6 -8 13 -5 7 2 13 -4 14 -16 1 -11 -4 -19 -10 -17 -14 2 -47
78 -39 91 3 5 0 6 -6 3 -5 -4 -22 7 -36 23 -14 17 -45 39 -68 50 -36 17 -39
20 -17 20 14 0 31 -6 38 -12 11 -11 12 -10 6 1 -6 11 -2 13 19 9 14 -3 26 -2
26 1 0 15 54 10 65 -6 9 -13 14 -13 20 -3 6 9 4 11 -5 5 -8 -5 -11 -3 -8 5 2
7 15 15 28 17 13 2 26 6 29 8 13 14 27 -6 31 -48z m278 31 c2 -4 8 -8 13 -8 6
0 8 4 5 8 -3 5 17 5 44 -1 27 -5 48 -13 45 -16 -2 -4 1 -13 6 -21 8 -12 9 -11
7 5 -3 18 3 20 50 21 28 0 51 -1 49 -2 -15 -15 -78 -52 -68 -40 12 14 12 16
-3 10 -9 -3 -16 -15 -16 -25 0 -11 -7 -19 -17 -19 -9 0 -13 -3 -10 -7 4 -3 -1
-12 -11 -20 -9 -8 -11 -11 -3 -8 9 6 9 1 -3 -17 -9 -14 -13 -28 -9 -31 3 -4 1
-7 -5 -7 -7 0 -10 -22 -9 -59 1 -33 -1 -57 -5 -54 -16 9 -8 -10 10 -24 10 -9
11 -11 2 -7 -13 6 -13 5 1 -12 8 -10 23 -32 33 -49 l17 -30 -20 24 c-12 13
-21 20 -21 17 0 -3 -8 2 -18 12 -11 9 -17 20 -15 25 2 4 -2 7 -10 7 -8 0 -20
14 -27 30 -7 17 -16 30 -21 30 -5 0 -9 9 -9 20 0 13 5 18 15 14 8 -3 13 -11
12 -17 -1 -7 4 -12 12 -12 8 0 15 6 17 13 1 7 0 8 -3 2 -2 -5 -9 -10 -14 -10
-6 0 -8 4 -4 9 5 10 -36 38 -44 30 -2 -2 -7 6 -12 18 -6 18 -5 21 9 17 14 -5
14 -3 -2 10 -21 17 -32 81 -16 91 5 3 10 12 10 18 0 7 -4 6 -10 -3 -5 -8 -10
-13 -11 -10 -6 31 -3 50 8 54 7 3 13 11 13 18 0 9 -3 9 -10 -2 -7 -12 -9 -10
-7 7 1 19 5 21 27 16 14 -3 27 -10 28 -15z m649 15 c-4 -3 -1 -13 6 -21 10
-13 9 -15 -7 -9 -16 6 -17 5 -7 -7 10 -12 8 -15 -11 -19 -19 -3 -18 -5 7 -6
23 -1 27 -3 15 -11 -8 -5 -10 -10 -4 -10 6 0 11 -7 11 -15 0 -8 -4 -15 -9 -15
-4 0 -8 5 -8 12 0 6 -3 9 -6 6 -3 -4 -1 -16 5 -27 13 -23 4 -74 -11 -65 -6 4
-8 -2 -3 -15 4 -13 1 -28 -6 -37 -7 -9 -14 -23 -15 -31 -2 -8 -10 -23 -18 -32
-9 -10 -16 -21 -16 -25 0 -4 -9 -17 -21 -29 l-20 -22 14 35 c8 19 13 43 12 53
-2 9 1 17 7 17 6 0 7 -8 3 -17 -5 -14 -4 -15 6 -6 10 10 9 16 -5 32 -15 17
-15 19 -1 25 9 3 13 10 10 16 -3 6 4 10 16 10 21 0 22 -1 4 -20 -10 -11 -16
-22 -14 -24 2 -2 12 7 22 20 16 21 16 25 3 30 -21 8 -49 -3 -41 -16 3 -5 4
-10 1 -10 -3 0 -10 10 -17 21 -8 15 -8 19 0 15 6 -4 11 -2 11 3 0 6 -5 11 -11
11 -6 0 -8 7 -5 16 3 8 2 13 -3 10 -14 -9 -22 23 -11 44 12 23 -6 38 -23 21
-9 -9 -8 -11 6 -5 13 5 16 2 10 -11 -5 -15 -13 -11 -48 26 -23 25 -47 43 -54
41 -6 -2 -11 0 -11 5 0 5 21 10 48 11 26 2 55 5 65 8 11 4 20 -2 27 -18 l11
-23 -5 23 c-3 17 -1 22 10 18 8 -3 14 -1 14 4 0 5 15 11 33 13 17 2 34 5 36 5
2 1 1 -1 -2 -5z m-1144 -124 c29 -16 37 -28 37 -60 0 -58 -103 -81 -153 -35
-23 22 -25 28 -16 54 16 46 82 67 132 41z m958 -15 c48 -44 5 -104 -76 -104
-40 0 -86 38 -80 68 2 9 4 20 4 24 1 4 13 14 29 23 33 19 96 13 123 -11z
m-816 -143 c-3 -5 -1 -13 5 -16 8 -5 7 -11 -1 -21 -18 -22 -28 -16 -26 16 1
17 8 30 15 30 7 0 11 -4 7 -9z m-15 -65 c0 -3 -4 -8 -10 -11 -5 -3 -10 -1 -10
4 0 6 5 11 10 11 6 0 10 -2 10 -4z m538 -280 l-11 -26 -266 -1 c-146 -1 -281
-1 -300 -1 -32 -1 -67 25 -57 41 2 3 149 7 325 9 l321 3 -12 -25z m-95 -170
c9 1 15 -2 12 -6 -7 -12 -105 -71 -105 -64 0 4 -7 1 -15 -6 -13 -11 -18 -10
-30 6 -14 18 -14 18 -11 -1 4 -18 -1 -21 -38 -21 -22 -1 -33 1 -23 3 9 3 17 9
17 14 0 6 -6 7 -12 3 -9 -5 -8 -2 1 9 9 11 21 15 34 11 14 -4 17 -3 12 6 -5 9
-4 11 4 6 19 -12 61 -14 61 -4 0 5 5 6 10 3 6 -3 10 -1 10 5 0 7 8 9 20 5 11
-4 20 -3 19 2 -4 22 2 47 9 37 4 -6 15 -10 25 -8z"/>
<path d="M2430 2055 c0 -8 2 -15 4 -15 2 0 6 7 10 15 3 8 1 15 -4 15 -6 0 -10
-7 -10 -15z"/>
<path d="M2475 2061 c-4 -7 0 -8 10 -5 10 4 15 2 13 -7 -2 -7 6 -14 17 -16 18
-3 18 -2 2 5 -10 4 -18 12 -17 17 2 14 -17 18 -25 6z"/>
<path d="M2570 2060 c0 -5 5 -10 11 -10 5 0 7 5 4 10 -3 6 -8 10 -11 10 -2 0
-4 -4 -4 -10z"/>
<path d="M2620 2050 c0 -5 -5 -9 -12 -7 -6 1 -13 -7 -15 -18 -3 -18 -2 -18 5
-2 4 10 12 18 17 17 5 -1 11 3 13 9 2 6 1 11 -2 11 -3 0 -6 -4 -6 -10z"/>
<path d="M2462 2037 c10 -8 15 -17 11 -20 -3 -4 -1 -7 5 -7 20 0 13 19 -10 30
-21 10 -21 10 -6 -3z"/>
<path d="M2548 2033 c6 -2 9 -10 6 -15 -4 -7 -2 -8 4 -4 18 11 14 26 -5 25
-11 0 -13 -3 -5 -6z"/>
<path d="M2565 1999 c-6 -8 -4 -10 5 -4 10 6 12 4 6 -11 -6 -15 -5 -17 5 -6 9
9 10 15 2 23 -8 8 -13 7 -18 -2z"/>
<path d="M2435 1960 c-3 -5 -1 -10 4 -10 6 0 11 5 11 10 0 6 -2 10 -4 10 -3 0
-8 -4 -11 -10z"/>
<path d="M2510 1960 c0 -5 5 -10 10 -10 6 0 10 5 10 10 0 6 -4 10 -10 10 -5 0
-10 -4 -10 -10z"/>
<path d="M2550 1950 c-9 -6 -10 -10 -3 -10 6 0 15 5 18 10 8 12 4 12 -15 0z"/>
<path d="M2470 1920 c0 -5 5 -10 10 -10 6 0 10 5 10 10 0 6 -4 10 -10 10 -5 0
-10 -4 -10 -10z"/>
<path d="M2535 1920 c3 -5 8 -10 11 -10 2 0 4 5 4 10 0 6 -5 10 -11 10 -5 0
-7 -4 -4 -10z"/>
<path d="M2508 1903 c7 -3 16 -2 19 1 4 3 -2 6 -13 5 -11 0 -14 -3 -6 -6z"/>
<path d="M2489 1868 c-6 -12 -6 -18 1 -18 5 0 10 7 10 16 0 8 4 13 8 10 4 -2
14 -1 22 4 11 7 9 9 -8 7 -13 -1 -28 -9 -33 -19z"/>
<path d="M2520 1855 c-7 -9 -11 -17 -9 -20 3 -2 10 5 17 15 14 24 10 26 -8 5z"/>
<path d="M2483 1822 c10 -4 17 -12 15 -17 -2 -6 8 -11 22 -12 24 -2 24 -2 2 5
-13 4 -23 12 -22 17 1 6 -7 11 -17 12 -17 3 -17 2 0 -5z"/>
<path d="M2990 2060 c0 -5 5 -10 11 -10 5 0 7 5 4 10 -3 6 -8 10 -11 10 -2 0
-4 -4 -4 -10z"/>
<path d="M3078 2063 c7 -3 16 -2 19 1 4 3 -2 6 -13 5 -11 0 -14 -3 -6 -6z"/>
<path d="M2950 2041 c8 -5 18 -7 22 -5 4 3 7 -5 5 -18 -1 -18 3 -22 23 -23 15
0 24 5 23 12 -2 8 6 12 20 10 12 -1 21 3 20 10 -2 6 6 11 17 10 11 -1 20 -7
20 -14 0 -7 5 -13 10 -13 7 0 7 6 1 19 -11 20 -58 23 -54 3 2 -7 -6 -11 -20
-9 -12 1 -21 -3 -20 -10 2 -6 -6 -11 -17 -10 -12 1 -18 8 -17 20 1 14 -5 21
-23 23 -18 3 -21 2 -10 -5z"/>
<path d="M3070 2000 c0 -5 5 -10 10 -10 6 0 10 5 10 10 0 6 -4 10 -10 10 -5 0
-10 -4 -10 -10z"/>
<path d="M3100 1940 c-9 -6 -10 -10 -3 -10 6 0 15 5 18 10 8 12 4 12 -15 0z"/>
<path d="M3080 1915 c0 -5 5 -17 10 -25 5 -8 10 -10 10 -5 0 6 -5 17 -10 25
-5 8 -10 11 -10 5z"/>
<path d="M3073 1848 c-2 -18 0 -20 7 -8 12 18 13 30 2 30 -4 0 -9 -10 -9 -22z"/>
<path d="M3391 2070 c0 -8 4 -22 9 -30 12 -18 12 -2 0 25 -6 13 -9 15 -9 5z"/>
<path d="M3435 2060 c-13 -6 -15 -9 -5 -9 8 0 22 4 30 9 18 12 2 12 -25 0z"/>
<path d="M3365 2039 c-5 -8 -4 -10 0 -6 5 4 15 -3 22 -15 7 -13 12 -18 13 -12
0 5 -6 18 -13 29 -12 15 -15 16 -22 4z"/>
<path d="M3457 2042 c-2 -4 -3 -16 -3 -27 1 -14 8 -20 26 -20 34 0 37 46 3 51
-12 2 -24 0 -26 -4z m40 -23 c-1 -10 -9 -17 -18 -16 -10 1 -17 9 -16 18 1 10
9 17 18 16 10 -1 17 -9 16 -18z"/>
<path d="M3425 2020 c3 -5 8 -10 11 -10 2 0 4 5 4 10 0 6 -5 10 -11 10 -5 0
-7 -4 -4 -10z"/>
<path d="M3414 2002 c3 -5 0 -13 -6 -15 -9 -4 -10 -6 -1 -6 17 -1 25 16 12 25
-7 4 -9 3 -5 -4z"/>
<path d="M3365 1980 c-3 -6 1 -7 9 -4 18 7 21 14 7 14 -6 0 -13 -4 -16 -10z"/>
<path d="M3436 1982 c-2 -4 -1 -14 4 -22 7 -11 9 -9 7 8 -1 24 -3 26 -11 14z"/>
<path d="M3468 1973 c7 -3 16 -2 19 1 4 3 -2 6 -13 5 -11 0 -14 -3 -6 -6z"/>
<path d="M3375 1959 c-4 -5 -3 -9 2 -9 4 0 1 -5 -7 -11 -13 -9 -13 -10 0 -6 8
2 14 9 13 15 -2 6 6 10 17 9 11 -1 20 -7 20 -14 0 -7 5 -13 10 -13 7 0 7 6 1
18 -10 19 -47 27 -56 11z"/>
<path d="M3465 1940 c3 -5 8 -10 11 -10 2 0 4 5 4 10 0 6 -5 10 -11 10 -5 0
-7 -4 -4 -10z"/>
<path d="M3390 1920 c0 -5 5 -10 10 -10 6 0 10 5 10 10 0 6 -4 10 -10 10 -5 0
-10 -4 -10 -10z"/>
<path d="M3430 1910 c-14 -11 -20 -20 -15 -21 6 0 -1 -5 -15 -10 l-25 -8 25 2
c14 1 24 7 23 13 -1 5 8 16 19 23 19 12 20 11 14 -6 -6 -14 -5 -16 5 -5 23 22
-4 33 -31 12z"/>
<path d="M3435 1869 c-11 -16 -1 -19 13 -3 7 8 8 14 3 14 -5 0 -13 -5 -16 -11z"/>
<path d="M3440 1800 c-9 -6 -10 -10 -3 -10 6 0 15 5 18 10 8 12 4 12 -15 0z"/>
<path d="M4016 2065 c-3 -8 -1 -15 4 -15 6 0 10 7 10 15 0 8 -2 15 -4 15 -2 0
-6 -7 -10 -15z"/>
<path d="M3934 2058 c6 -20 -10 -25 -17 -5 -4 9 -6 9 -6 0 -1 -16 19 -27 29
-17 5 5 5 16 -1 24 -9 13 -10 12 -5 -2z"/>
<path d="M3990 2051 c0 -6 4 -13 10 -16 6 -3 7 1 4 9 -7 18 -14 21 -14 7z"/>
<path d="M3890 2020 c0 -5 5 -10 10 -10 6 0 10 5 10 10 0 6 -4 10 -10 10 -5 0
-10 -4 -10 -10z"/>
<path d="M3970 2020 c0 -5 5 -10 10 -10 6 0 10 5 10 10 0 6 -4 10 -10 10 -5 0
-10 -4 -10 -10z"/>
<path d="M3995 2000 c-4 -6 -4 -14 -1 -17 3 -4 6 -1 6 5 0 20 16 13 17 -7 1
-13 -5 -18 -20 -17 -17 1 -22 -5 -22 -24 0 -26 26 -36 31 -12 1 7 0 8 -3 2 -8
-16 -19 -12 -20 9 -1 13 5 18 20 17 17 -1 22 5 22 23 0 26 -19 39 -30 21z"/>
<path d="M3961 1993 c-1 -6 -4 -20 -7 -30 -5 -17 -5 -17 6 0 6 10 9 23 6 30
-3 9 -5 9 -5 0z"/>
<path d="M4035 1940 c3 -5 8 -10 11 -10 2 0 4 5 4 10 0 6 -5 10 -11 10 -5 0
-7 -4 -4 -10z"/>
<path d="M3290 1237 c0 -2 6 -10 14 -16 11 -9 16 -9 22 1 4 7 4 10 -1 6 -4 -4
-14 -3 -22 3 -7 6 -13 9 -13 6z"/>
</g>
</svg>
